# xmcd CD database file
#
# Track frame offsets:
#	150
#	15428
#	31916
#	45707
#	59660
#	74477
#	87945
#	101136
#	112926
#	126904
#	138088
#	151663
#	164034
#	175637
#	188710
#	204662
#	214598
#
# Disc length: 3003 seconds
#
# Revision: 0
# Processed by: cddbd v1.5.2PL0 Copyright (c) Steve Scherf et al.
# Submitted via: CDex 1.51
#
DISCID=e70bb911
DTITLE=Dave Denny - Old Black Dog
DYEAR=2015
DGENRE=Blues
TTITLE0=Empire State Express
TTITLE1=Nine Pound Hammer
TTITLE2=Mother Earth
TTITLE3=That'll Never Happen No More
TTITLE4=The Blues Run The Game
TTITLE5=Just Because
TTITLE6=Ain't Misbehaving
TTITLE7=Viola Lee Blues
TTITLE8=Bull Fiddle Blues
TTITLE9=Warbash Cannonball
TTITLE10=Kind Hearted Woman
TTITLE11=Old Black Dog
TTITLE12=Sister Kate
TTITLE13=Dimming Of The Day
TTITLE14=Gimme Three Steps
TTITLE15=Freight Train
TTITLE16=Bring It With You When You Come
EXTD=YEAR: 2015
EXTT0=
EXTT1=
EXTT2=
EXTT3=
EXTT4=
EXTT5=
EXTT6=
EXTT7=
EXTT8=
EXTT9=
EXTT10=
EXTT11=
EXTT12=
EXTT13=
EXTT14=
EXTT15=
EXTT16=
PLAYORDER=
